<?xml version="1.0" encoding="UTF-8"?>
<svg width="24px" height="24px" viewBox="0 0 24 24" version="1.1" xmlns="http://www.w3.org/2000/svg" xmlns:xlink="http://www.w3.org/1999/xlink">
    <!-- Generator: Sketch 47.1 (45422) - http://www.bohemiancoding.com/sketch -->
    <title>ic_delete</title>
    <desc>Created with Sketch.</desc>
    <defs></defs>
    <g id="Symbols" stroke="none" stroke-width="1" fill="none" fill-rule="evenodd">
        <g id="ic_delete" fill-rule="nonzero" fill="#505050">
            <g id="Page-1" transform="translate(4.000000, 3.000000)">
                <path d="M14.8109,5.0559 C15.0847576,5.0559 15.3109,4.82975763 15.3109,4.5559 L15.3109,3.9519 C15.3109,3.67804237 15.0847576,3.4519 14.8109,3.4519 L1.4999,3.4519 C1.22604237,3.4519 0.9999,3.67804237 0.9999,3.9519 L0.9999,4.5559 C0.9999,4.82975763 1.22604237,5.0559 1.4999,5.0559 L14.8109,5.0559 Z M11.793,2.4519 L14.8109,2.4519 C15.6370424,2.4519 16.3109,3.12575763 16.3109,3.9519 L16.3109,4.5559 C16.3109,5.38204237 15.6370424,6.0559 14.8109,6.0559 L14.746,6.0559 L14.746,17.6088 C14.746,18.3304923 14.1738316,18.9278 13.461,18.9278 L2.85,18.9278 C2.13716845,18.9278 1.565,18.3304923 1.565,17.6088 L1.565,6.0559 L1.4999,6.0559 C0.673757625,6.0559 -0.0001,5.38204237 -0.0001,4.5559 L-0.0001,3.9519 C-0.0001,3.12575763 0.673757625,2.4519 1.4999,2.4519 L4.518,2.4519 L4.518,1.3186 C4.518,0.59220685 5.11010802,-0.0004 5.837,-0.0004 L10.474,-0.0004 C11.2001424,-0.0004 11.793,0.592457625 11.793,1.3186 L11.793,2.4519 Z M10.793,2.4519 L10.793,1.3186 C10.793,1.14474237 10.6478576,0.9996 10.474,0.9996 L5.837,0.9996 C5.66258137,0.9996 5.518,1.14430318 5.518,1.3186 L5.518,2.4519 L10.793,2.4519 Z M13.746,6.0559 L2.565,6.0559 L2.565,17.6088 C2.565,17.787598 2.69930125,17.9278 2.85,17.9278 L13.461,17.9278 C13.6116987,17.9278 13.746,17.787598 13.746,17.6088 L13.746,6.0559 Z M4.459,8.8112 L5.459,8.8112 L5.459,16.2292 L4.459,16.2292 L4.459,8.8112 Z M7.6555,8.8112 L8.6555,8.8112 L8.6555,16.2292 L7.6555,16.2292 L7.6555,8.8112 Z M10.852,8.8112 L11.852,8.8112 L11.852,16.2292 L10.852,16.2292 L10.852,8.8112 Z" id="Combined-Shape"></path>
            </g>
        </g>
    </g>
</svg>