<?xml version="1.0" encoding="UTF-8"?>
<svg width="24px" height="24px" viewBox="0 0 24 24" version="1.1" xmlns="http://www.w3.org/2000/svg" xmlns:xlink="http://www.w3.org/1999/xlink">
    <!-- Generator: Sketch 47.1 (45422) - http://www.bohemiancoding.com/sketch -->
    <title>ic_x_close copy</title>
    <desc>Created with Sketch.</desc>
    <defs></defs>
    <g id="Symbols" stroke="none" stroke-width="1" fill="none" fill-rule="evenodd">
        <g id="ic_x_close-copy" fill-rule="nonzero" fill="#505050">
            <g id="Group" transform="translate(7.000000, 7.000000)">
                <path d="M5.70710678,5 L10.3535534,0.353553391 C10.5488155,0.158291245 10.5488155,-0.158291245 10.3535534,-0.353553391 C10.1582912,-0.548815536 9.84170876,-0.548815536 9.64644661,-0.353553391 L5,4.29289322 L0.353553391,-0.353553391 C0.158291245,-0.548815536 -0.158291245,-0.548815536 -0.353553391,-0.353553391 C-0.548815536,-0.158291245 -0.548815536,0.158291245 -0.353553391,0.353553391 L4.29289322,5 L-0.353553391,9.64644661 C-0.548815536,9.84170876 -0.548815536,10.1582912 -0.353553391,10.3535534 C-0.158291245,10.5488155 0.158291245,10.5488155 0.353553391,10.3535534 L5,5.70710678 L9.64644661,10.3535534 C9.84170876,10.5488155 10.1582912,10.5488155 10.3535534,10.3535534 C10.5488155,10.1582912 10.5488155,9.84170876 10.3535534,9.64644661 L5.70710678,5 Z" id="Combined-Shape"></path>
            </g>
        </g>
    </g>
</svg>